<?xml version="1.0" encoding="UTF-8" standalone="no"?>
<!-- Generator: Adobe Illustrator 19.0.0, SVG Export Plug-In . SVG Version: 6.00 Build 0)  -->

<svg
   xmlns:dc="http://purl.org/dc/elements/1.1/"
   xmlns:cc="http://creativecommons.org/ns#"
   xmlns:rdf="http://www.w3.org/1999/02/22-rdf-syntax-ns#"
   xmlns:svg="http://www.w3.org/2000/svg"
   xmlns="http://www.w3.org/2000/svg"
   xmlns:sodipodi="http://sodipodi.sourceforge.net/DTD/sodipodi-0.dtd"
   xmlns:inkscape="http://www.inkscape.org/namespaces/inkscape"
   version="1.1"
   id="Capa_1"
   x="0px"
   y="0px"
   viewBox="0 0 512 512"
   style="enable-background:new 0 0 512 512;"
   xml:space="preserve"
   sodipodi:docname="cam-disabled.svg"
   inkscape:version="0.92.4 (5da689c313, 2019-01-14)"><metadata
   id="metadata5249"><rdf:RDF><cc:Work
       rdf:about=""><dc:format>image/svg+xml</dc:format><dc:type
         rdf:resource="http://purl.org/dc/dcmitype/StillImage" /><dc:title></dc:title></cc:Work></rdf:RDF></metadata><defs
   id="defs5247" /><sodipodi:namedview
   pagecolor="#ffffff"
   bordercolor="#666666"
   borderopacity="1"
   objecttolerance="10"
   gridtolerance="10"
   guidetolerance="10"
   inkscape:pageopacity="0"
   inkscape:pageshadow="2"
   inkscape:window-width="1920"
   inkscape:window-height="1017"
   id="namedview5245"
   showgrid="false"
   inkscape:zoom="0.5855728"
   inkscape:cx="247.92209"
   inkscape:cy="283.86925"
   inkscape:window-x="-8"
   inkscape:window-y="-8"
   inkscape:window-maximized="1"
   inkscape:current-layer="Capa_1" />
<g
   id="g5194"
   transform="translate(0.85386479,-84.532614)">
	<g
   id="g5192">
		<path
   d="M 335.614,212.418 H 34.316 C 15.394,212.418 0,227.813 0,246.735 v 208.643 c 0,18.922 15.394,34.316 34.316,34.316 h 301.298 c 18.922,0 34.316,-15.401 34.316,-34.316 V 246.735 c 0,-18.922 -15.394,-34.317 -34.316,-34.317 z m -6.863,236.097 H 41.18 V 253.598 h 287.571 v 194.917 z"
   id="path5190"
   inkscape:connector-curvature="0" />
	</g>
</g>
<g
   id="g5200">
	<g
   id="g5198">
		<path
   d="m 503.51986,151.82439 c -5.827,-3.795 -13.184,-4.399 -19.553,-1.599 l -143.436,63.142 16.595,37.693 114.548,-50.431 v 132.756 l -114.706,-49.402 -16.287,37.83 143.435,61.769 c 2.615,1.119 5.388,1.675 8.147,1.675 3.96,0 7.906,-1.146 11.318,-3.384 5.786,-3.809 9.272,-10.267 9.272,-17.199 v -195.602 c 0.001,-6.96 -3.506,-13.445 -9.333,-17.248 z"
   id="path5196"
   inkscape:connector-curvature="0" />
	</g>
</g>


<g
   id="g5214">
</g>
<g
   id="g5216">
</g>
<g
   id="g5218">
</g>
<g
   id="g5220">
</g>
<g
   id="g5222">
</g>
<g
   id="g5224">
</g>
<g
   id="g5226">
</g>
<g
   id="g5228">
</g>
<g
   id="g5230">
</g>
<g
   id="g5232">
</g>
<g
   id="g5234">
</g>
<g
   id="g5236">
</g>
<g
   id="g5238">
</g>
<g
   id="g5240">
</g>
<g
   id="g5242">
</g>
<g
   id="g5321"
   transform="matrix(1.0214174,0,0,0.99022645,32.849711,57.61179)"><g
     id="g5255">
	<g
   id="g5253">
		
			<rect
   id="rect5251"
   height="392.108"
   width="42.667"
   transform="matrix(0.7071,-0.7071,0.7071,0.7071,-88.3615,213.343)"
   y="17.278999"
   x="192.01401" />
	</g>
</g><g
     id="g5261">
	<g
   id="g5259">
		<path
   id="path5257"
   d="M 213.333,0 C 95.513,0 0,95.513 0,213.333 c 0,117.82 95.513,213.333 213.333,213.333 117.82,0 213.333,-95.513 213.333,-213.333 C 426.666,95.513 331.154,0 213.333,0 Z m 0,388.053 c -96.495,0 -174.72,-78.225 -174.72,-174.72 0,-96.495 78.225,-174.72 174.72,-174.72 96.446,0.117 174.602,78.273 174.72,174.72 0,96.496 -78.224,174.72 -174.72,174.72 z"
   inkscape:connector-curvature="0" />
	</g>
</g><g
     id="g5263">
</g><g
     id="g5265">
</g><g
     id="g5267">
</g><g
     id="g5269">
</g><g
     id="g5271">
</g><g
     id="g5273">
</g><g
     id="g5275">
</g><g
     id="g5277">
</g><g
     id="g5279">
</g><g
     id="g5281">
</g><g
     id="g5283">
</g><g
     id="g5285">
</g><g
     id="g5287">
</g><g
     id="g5289">
</g><g
     id="g5291">
</g></g></svg>