<?xml version="1.0" encoding="iso-8859-1"?>
<!-- Generator: Adobe Illustrator 19.0.0, SVG Export Plug-In . SVG Version: 6.00 Build 0)  -->
<svg version="1.1" id="Capa_1" xmlns="http://www.w3.org/2000/svg" xmlns:xlink="http://www.w3.org/1999/xlink" x="0px" y="0px"
	 viewBox="0 0 512 512" style="enable-background:new 0 0 512 512;" xml:space="preserve">
<g>
	<g>
		<path d="M335.614,212.418H34.316C15.394,212.418,0,227.813,0,246.735v208.643c0,18.922,15.394,34.316,34.316,34.316h301.298
			c18.922,0,34.316-15.401,34.316-34.316V246.735C369.93,227.813,354.536,212.418,335.614,212.418z M328.751,448.515H41.18V253.598
			h287.571V448.515z"/>
	</g>
</g>
<g>
	<g>
		<path d="M502.666,236.357c-5.827-3.795-13.184-4.399-19.553-1.599L339.677,297.9l16.595,37.693l114.548-50.431v132.756
			l-114.706-49.402l-16.287,37.83l143.435,61.769c2.615,1.119,5.388,1.675,8.147,1.675c3.96,0,7.906-1.146,11.318-3.384
			c5.786-3.809,9.272-10.267,9.272-17.199V253.605C512,246.645,508.493,240.16,502.666,236.357z"/>
	</g>
</g>
<g>
	<g>
		<path d="M84.418,22.306c-46.169,0-83.732,37.563-83.732,83.732c0,46.169,37.563,83.732,83.732,83.732
			c46.169,0,83.732-37.563,83.732-83.732C168.15,59.868,130.587,22.306,84.418,22.306z M84.418,148.59
			c-23.466,0-42.552-19.094-42.552-42.552c0-23.466,19.094-42.552,42.552-42.552c23.466,0,42.552,19.087,42.552,42.552
			S107.884,148.59,84.418,148.59z"/>
	</g>
</g>
<g>
	<g>
		<path d="M275.217,22.306c-46.169,0-83.732,37.563-83.732,83.732c0,46.169,37.563,83.732,83.732,83.732
			c46.169,0,83.732-37.563,83.732-83.732C358.949,59.868,321.393,22.306,275.217,22.306z M275.217,148.59
			c-23.466,0-42.552-19.094-42.552-42.552c0-23.466,19.094-42.552,42.552-42.552c23.466,0,42.552,19.087,42.552,42.552
			S298.683,148.59,275.217,148.59z"/>
	</g>
</g>
<g>
</g>
<g>
</g>
<g>
</g>
<g>
</g>
<g>
</g>
<g>
</g>
<g>
</g>
<g>
</g>
<g>
</g>
<g>
</g>
<g>
</g>
<g>
</g>
<g>
</g>
<g>
</g>
<g>
</g>
</svg>
