<?xml version="1.0" encoding="UTF-8" standalone="no"?>
<!-- Generator: Adobe Illustrator 19.0.0, SVG Export Plug-In . SVG Version: 6.00 Build 0)  -->

<svg
   xmlns:dc="http://purl.org/dc/elements/1.1/"
   xmlns:cc="http://creativecommons.org/ns#"
   xmlns:rdf="http://www.w3.org/1999/02/22-rdf-syntax-ns#"
   xmlns:svg="http://www.w3.org/2000/svg"
   xmlns="http://www.w3.org/2000/svg"
   xmlns:sodipodi="http://sodipodi.sourceforge.net/DTD/sodipodi-0.dtd"
   xmlns:inkscape="http://www.inkscape.org/namespaces/inkscape"
   version="1.1"
   id="Capa_1"
   x="0px"
   y="0px"
   viewBox="0 0 512 512"
   style="enable-background:new 0 0 512 512;"
   xml:space="preserve"
   sodipodi:docname="mic-disabled.svg"
   inkscape:version="0.92.4 (5da689c313, 2019-01-14)"><metadata
   id="metadata862"><rdf:RDF><cc:Work
       rdf:about=""><dc:format>image/svg+xml</dc:format><dc:type
         rdf:resource="http://purl.org/dc/dcmitype/StillImage" /><dc:title></dc:title></cc:Work></rdf:RDF></metadata><defs
   id="defs860" /><sodipodi:namedview
   pagecolor="#ffffff"
   bordercolor="#666666"
   borderopacity="1"
   objecttolerance="10"
   gridtolerance="10"
   guidetolerance="10"
   inkscape:pageopacity="0"
   inkscape:pageshadow="2"
   inkscape:window-width="1920"
   inkscape:window-height="1017"
   id="namedview858"
   showgrid="false"
   inkscape:zoom="1.1711456"
   inkscape:cx="185.45912"
   inkscape:cy="307.17351"
   inkscape:window-x="-8"
   inkscape:window-y="-8"
   inkscape:window-maximized="1"
   inkscape:current-layer="Capa_1" />
<g
   id="g819">
	<g
   id="g817">
		<path
   d="M431.666,239.934c0-8.284-6.716-15-15-15s-15,6.716-15,15c0,80.32-65.346,145.666-145.666,145.666    s-145.666-65.346-145.666-145.666c0-8.284-6.716-15-15-15s-15,6.716-15,15c0,91.809,70.8,167.383,160.666,175.018V482h-33.199    c-8.284,0-15,6.716-15,15s6.716,15,15,15h96.4c8.284,0,15-6.716,15-15s-6.716-15-15-15H271v-67.048    C360.866,407.316,431.666,331.742,431.666,239.934z"
   id="path815" />
	</g>
</g>
<g
   id="g825">
	<g
   id="g823">
		<path
   d="M256,0c-43.707,0-79.266,35.559-79.266,79.267v160.667c0,43.708,35.559,79.266,79.266,79.266    c43.708,0,79.268-35.559,79.268-79.267V79.267C335.268,35.559,299.708,0,256,0z M305.268,239.934    c0,27.166-22.102,49.267-49.268,49.267c-27.165,0-49.266-22.101-49.266-49.267V79.267C206.734,52.101,228.835,30,256,30    c27.166,0,49.268,22.101,49.268,49.267V239.934z"
   id="path821" />
	</g>
</g>
<g
   id="g827">
</g>
<g
   id="g829">
</g>
<g
   id="g831">
</g>
<g
   id="g833">
</g>
<g
   id="g835">
</g>
<g
   id="g837">
</g>
<g
   id="g839">
</g>
<g
   id="g841">
</g>
<g
   id="g843">
</g>
<g
   id="g845">
</g>
<g
   id="g847">
</g>
<g
   id="g849">
</g>
<g
   id="g851">
</g>
<g
   id="g853">
</g>
<g
   id="g855">
</g>
<g
   id="g4637"
   transform="translate(42.667)"><g
     id="g4571">
	<g
   id="g4569">
		
			<rect
   id="rect4567"
   height="392.108"
   width="42.667"
   transform="matrix(0.7071,-0.7071,0.7071,0.7071,-88.3615,213.343)"
   y="17.278999"
   x="192.01401" />
	</g>
</g><g
     id="g4577">
	<g
   id="g4575">
		<path
   id="path4573"
   d="M 213.333,0 C 95.513,0 0,95.513 0,213.333 c 0,117.82 95.513,213.333 213.333,213.333 117.82,0 213.333,-95.513 213.333,-213.333 C 426.666,95.513 331.154,0 213.333,0 Z m 0,388.053 c -96.495,0 -174.72,-78.225 -174.72,-174.72 0,-96.495 78.225,-174.72 174.72,-174.72 96.446,0.117 174.602,78.273 174.72,174.72 0,96.496 -78.224,174.72 -174.72,174.72 z"
   inkscape:connector-curvature="0" />
	</g>
</g><g
     id="g4579">
</g><g
     id="g4581">
</g><g
     id="g4583">
</g><g
     id="g4585">
</g><g
     id="g4587">
</g><g
     id="g4589">
</g><g
     id="g4591">
</g><g
     id="g4593">
</g><g
     id="g4595">
</g><g
     id="g4597">
</g><g
     id="g4599">
</g><g
     id="g4601">
</g><g
     id="g4603">
</g><g
     id="g4605">
</g><g
     id="g4607">
</g></g></svg>