<?xml version="1.0" encoding="iso-8859-1"?>
<!-- Generator: Adobe Illustrator 19.0.0, SVG Export Plug-In . SVG Version: 6.00 Build 0)  -->
<svg version="1.1" id="Capa_1" xmlns="http://www.w3.org/2000/svg" xmlns:xlink="http://www.w3.org/1999/xlink" x="0px" y="0px"
	 viewBox="0 0 512 512" style="enable-background:new 0 0 512 512;" xml:space="preserve">
<g>
	<g>
		<path d="M431.666,239.934c0-8.284-6.716-15-15-15s-15,6.716-15,15c0,80.32-65.346,145.666-145.666,145.666
			s-145.666-65.346-145.666-145.666c0-8.284-6.716-15-15-15s-15,6.716-15,15c0,91.809,70.8,167.383,160.666,175.018V482h-33.199
			c-8.284,0-15,6.716-15,15s6.716,15,15,15h96.4c8.284,0,15-6.716,15-15s-6.716-15-15-15H271v-67.048
			C360.866,407.316,431.666,331.742,431.666,239.934z"/>
	</g>
</g>
<g>
	<g>
		<path d="M256,0c-43.707,0-79.266,35.559-79.266,79.267v160.667c0,43.708,35.559,79.266,79.266,79.266
			c43.708,0,79.268-35.559,79.268-79.267V79.267C335.268,35.559,299.708,0,256,0z M305.268,239.934
			c0,27.166-22.102,49.267-49.268,49.267c-27.165,0-49.266-22.101-49.266-49.267V79.267C206.734,52.101,228.835,30,256,30
			c27.166,0,49.268,22.101,49.268,49.267V239.934z"/>
	</g>
</g>
<g>
</g>
<g>
</g>
<g>
</g>
<g>
</g>
<g>
</g>
<g>
</g>
<g>
</g>
<g>
</g>
<g>
</g>
<g>
</g>
<g>
</g>
<g>
</g>
<g>
</g>
<g>
</g>
<g>
</g>
</svg>
